<svg id="Layer_1" data-name="Layer 1" xmlns="http://www.w3.org/2000/svg" viewBox="0 0 83.35 28.44">
  <title>featherarrowright</title>
  <path d="M607.31,399.44H573l-12.33-12.23h33.87Zm0,3.93-12.68,12.28h-34L573,403.37Zm36.69-2a47.44,47.44,0,0,0-11.73,6,29.4,29.4,0,0,0-7.75,8.2,11.56,11.56,0,0,1-1.46-2.77,8.6,8.6,0,0,1-.5-2.92,11.31,11.31,0,0,1,.5-3.35,15,15,0,0,1,1.46-3.25H608.26v-3.93h16.26a13.92,13.92,0,0,1-1.46-3.2,11.46,11.46,0,0,1-.5-3.4,8.46,8.46,0,0,1,.5-2.87,11.57,11.57,0,0,1,1.46-2.77,28,28,0,0,0,7.6,8.18A46.16,46.16,0,0,0,644,401.41Z" transform="translate(-560.65 -387.21)"/>
</svg>
